<?xml version="1.0" encoding="utf-8"?>
<!-- Generator: Adobe Illustrator 24.0.2, SVG Export Plug-In . SVG Version: 6.00 Build 0)  -->
<svg version="1.1" id="Capa_1" xmlns="http://www.w3.org/2000/svg" xmlns:xlink="http://www.w3.org/1999/xlink" x="0px" y="0px"
	 viewBox="0 0 1486.5 751.6" style="enable-background:new 0 0 1486.5 751.6;" xml:space="preserve">
<style type="text/css">
	.st0{fill:#FFFFFF;}
	.st1{fill:#EB6545;}
	.st2{fill:#00A099;}
	.st3{fill:#3FB4D0;}
	.st4{fill:#F29100;}
	.st5{fill:#D77B0F;}
	.st6{fill:#1D1F3E;}
	.st7{fill:#35A8E0;}
	.st8{display:none;}
	.st9{display:inline;fill:#FFFFFF;}
</style>
<path class="st0" d="M679.8,171.7c-11.4-30.9-28.4-57.9-50.5-80.2c-29.4-29.6-68.1-51.4-115.1-64.7c-36.7-10.4-78.3-15.6-123.9-15.6
	c-40.9,0-77.2,4.3-101.4,8.1C271,8.5,250.7,2.2,229.6,1l0-0.3l-9.7,0h-9.7V1c-12.9,0.8-25.3,3-37.1,6.8c-17.9,5.7-34.3,15-48.9,27.4
	c-35.1,29.9-59.6,78.6-72.8,144.7c-10.8,54.2-9.8,111,3.1,168.6c10.2,45.8,28,92.3,52.7,138.2c7.9,14.6,16.5,29.2,25.7,43.5
	c-4.4-0.7-8.7-1.1-12.8-1.1c-3.8,0-7.4,0.3-10.6,1l-2.7,0.6l-10.5,2.2l3.3,10.2l0.8,2.6c3.3,10.5,11.3,20.1,22.4,27.1
	c0.6,0.4,1.1,0.7,1.7,1c-8.2,4.7-15.8,10.6-22.2,17.4l-2.5,2.7l-10,10.7l13.8,4.9l3.5,1.2c7.4,2.6,15.2,4,23.2,4
	c8.6,0,16.8-1.5,24.2-4.4c-1,10.5-0.1,21.8,2.6,32.4l0.8,3.3l3.3,13.1l11.3-7.3l2.9-1.9c11.1-7.2,19.7-19.9,23.3-34.4l0.5,0.5
	l0.8,0.5l0.3,0.2c0.1,0.1,0.3,0.2,0.4,0.3c-0.8,1-1.6,2-2.3,3.1c-8,12.1-9.4,30.2-4.2,53.6c3.7,16.6,9.5,30.3,10.1,31.8l4.1,9.6
	l9.8,22.8l6.3-18.2l8.8,31.7l8.8-31.7l6.3,18.2l9.8-22.8l4.1-9.6c0.4-0.9,2.8-6.6,5.4-14.8c2.6,8.2,5,13.8,5.4,14.8l4.1,9.6
	l9.8,22.8l6.3-18.2l8.8,31.7l8.8-31.7l6.3,18.2l9.8-22.8l4.1-9.6c0.6-1.5,6.4-15.2,10.1-31.8c5.2-23.4,3.8-41.5-4.2-53.6
	c-0.4-0.6-0.9-1.3-1.3-1.9c8.7-4.8,17.3-11.5,25.7-19.9l0.5-0.5l1.3-1.3l0.7-1.7l0.3-0.7c0.3-0.6,25.2-57.8,42.8-126.5
	c10.4-40.7,16.2-77.5,17.3-109.4c1.4-41.2-5-74.8-19.3-99.6c-8.6-15-20.1-27-34.1-35.7c-2.8-1.7-5.7-3.3-8.7-4.8
	c31.3-4,60.9-6,88.5-6c93.3,0,149,23,179.3,42.3c30.3,19.3,41.1,38.5,41.6,39.2l7.5,14.6l17.9,34.7l0.3-39.1l0.1-16.5
	C698.3,244.2,692.2,205.2,679.8,171.7z"/>
<g>
	<g>
		<path class="st0" d="M303.7,617.5c50.9,0,15.3,82.7,15.3,82.7l-9.2-26.3l-7.3,26.3l-7.3-26.3l-9.2,26.3c0,0-35.6-82.7,15.3-82.7
			c0.4,0,0.8,0,1.1,0C302.9,617.5,303.3,617.5,303.7,617.5 M303.7,613.4L303.7,613.4c-0.4,0-0.8,0-1.1,0c-0.4,0-0.8,0-1.1,0
			c-11.8,0-20.5,4.1-25.8,12.1c-15.6,23.7,5.8,74.1,6.7,76.3l4.1,9.6l3.5-9.9l4.9-14l3.8,13.7l3.9,14.2l3.9-14.2l3.8-13.7l4.9,14
			l3.5,9.9l4.1-9.6c0.9-2.1,22.3-52.5,6.7-76.3C324.1,617.5,315.5,613.4,303.7,613.4L303.7,613.4z"/>
		<path class="st0" d="M234.6,617.5c50.9,0,15.3,82.7,15.3,82.7l-9.2-26.3l-7.3,26.3l-7.3-26.3l-9.2,26.3c0,0-35.6-82.7,15.3-82.7
			c0.4,0,0.8,0,1.1,0C233.8,617.5,234.2,617.5,234.6,617.5 M234.6,613.4L234.6,613.4c-0.4,0-0.8,0-1.1,0c-0.4,0-0.8,0-1.1,0
			c-11.8,0-20.5,4.1-25.8,12.1c-15.6,23.7,5.8,74.1,6.7,76.3l4.1,9.6l3.5-9.9l4.9-14l3.8,13.7l3.9,14.2l3.9-14.2l3.8-13.7l4.9,14
			l3.5,9.9l4.1-9.6c0.9-2.1,22.3-52.5,6.7-76.3C255.1,617.5,246.4,613.4,234.6,613.4L234.6,613.4z"/>
		<path class="st0" d="M390.1,25C514.7,25,686,65.3,684.2,287.4c0,0-45.9-88.8-233-88.9c-51.4,0-113.4,6.7-188,23.8V38.1
			C263.3,38.1,319.1,25,390.1,25 M390.2,20.9L390.2,20.9c-70.7,0-127.2,13.1-127.8,13.2l-3.1,0.7v3.2v184.2v5.1l5-1.1
			c68.6-15.7,131.6-23.7,187-23.7c95.7,0,153.1,23.8,184.4,43.8c33.5,21.4,44.8,42.6,44.9,42.9l7.6,14.7l0.1-16.5
			c0.3-42.1-5.6-79.9-17.6-112.4c-11-29.6-27.2-55.4-48.3-76.7C594.2,69.9,556.9,49,511.5,36.1C475.7,26,434.8,20.9,390.2,20.9
			L390.2,20.9z"/>
		<path class="st0" d="M120.1,541.1c20.7,0,49.5,12.2,50.1,26.1c-4.2,2.3-9.1,3.4-14.3,3.4c-17.8,0-38.7-12.3-44-28.8
			C114.5,541.4,117.2,541.1,120.1,541.1 M120.1,538.7L120.1,538.7c-3.2,0-6.1,0.3-8.7,0.8l-2.7,0.6l0.8,2.6
			c2.7,8.3,9.2,16.1,18.3,21.9c8.6,5.5,18.8,8.6,28,8.6c5.9,0,11.1-1.2,15.5-3.7l1.3-0.7l-0.1-1.5c-0.3-7.4-7-14.6-18.9-20.4
			C143.5,541.8,130.6,538.7,120.1,538.7L120.1,538.7z"/>
		<path class="st0" d="M160.7,575c5.1,0,9.3,1.1,12.1,3.5c-5.8,14.8-23.5,24.1-42.5,24.1c-6.4,0-12.9-1-19.1-3.3
			C125.6,583.9,146.4,575,160.7,575 M160.7,572.6v2.4V572.6L160.7,572.6c-16.4,0-37.5,10.3-51.3,25.1l-2.5,2.7l3.5,1.2
			c6.4,2.3,13.1,3.4,20,3.4c20.8,0,38.8-10.3,44.8-25.7l0.6-1.6l-1.3-1.1C171.2,574,166.5,572.6,160.7,572.6L160.7,572.6z"/>
		<path class="st0" d="M182.8,580.8c11.6,16.4,4.6,47-14,59C162.1,613.3,168.8,585.7,182.8,580.8 M183.8,577.8l-1.7,0.6
			c-7.6,2.7-13.4,10.9-16.3,23.2c-2.8,11.7-2.5,25.8,0.8,38.8l0.8,3.3l2.9-1.9c9.8-6.3,17.2-18.1,19.8-31.5
			c2.3-11.9,0.4-23.2-5.1-31L183.8,577.8L183.8,577.8z"/>
		<path class="st0" d="M219.9,14.4c2.8,0,5.6,0.1,8.3,0.2c40.3,2.1,77,25.3,94.5,61.7c16.6,34.5,18.3,84.9-44.6,145.9
			c0,0-116.9,79.4-1.1,358.1c0,0-16.3,33.9-44,33.9c-7.5,0-15.8-2.5-24.9-8.7c0,0-189.1-193.5-143.2-423
			C93.1,41.6,167.1,14.4,219.9,14.4 M219.9,10.3v4.1V10.3c-15.3,0-30.1,2.2-43.8,6.6c-16.7,5.3-32,13.9-45.6,25.5
			C97.1,71,73.7,117.9,60.9,181.8c-10.6,52.9-9.6,108.3,3,164.6c10.1,45,27.5,90.6,51.8,135.7c21.6,40.1,44.7,72.2,60.4,92.2
			c17,21.6,28.6,33.6,29.1,34.1l0.3,0.3l0.3,0.2c9.1,6.3,18.2,9.5,27.2,9.5c29.9,0,47-34.7,47.7-36.2l0.8-1.6l-0.7-1.7
			c-59.2-142.3-56-230.9-42.9-280.1c7.3-27.7,18.5-46.1,26.6-56.6c8.8-11.4,15.9-16.4,15.9-16.4l0.3-0.2l0.3-0.2
			c29.2-28.3,47.1-56.9,53.2-84.9c4.9-22.5,2.3-44.6-7.8-65.7c-17.9-37.3-55.4-61.8-97.9-64C225.6,10.4,222.7,10.3,219.9,10.3
			L219.9,10.3z"/>
		<path class="st1" d="M263.3,38.1c0,0,423.6-99.4,420.9,249.3c0,0-74.6-144.4-420.9-65.1V38.1z"/>
		<path class="st2" d="M263.3,38.1v184.2c173.8-39.8,279.2-23.3,341,3.1c14.5-39.8,13.7-82.8-5.9-120.4c-9.5-18.3-22.7-33.7-38.4-46
			C435.8-2.4,263.3,38.1,263.3,38.1z"/>
		<path class="st3" d="M263.3,38.1v184.2c93.1-21.3,166.6-26.5,224.3-22.6c30-19.3,49.3-49.1,49.3-82.6c0-33.5-19.2-63.3-49.2-82.6
			C378,11.2,263.3,38.1,263.3,38.1z"/>
		<path class="st4" d="M279.2,218.8c1.6-0.3,3.1-0.7,4.7-1c1.1-0.2,2.1-0.4,3.2-0.7c1.4-0.3,2.7-0.6,4.1-0.8
			c1.2-0.2,2.4-0.5,3.7-0.7c1.3-0.3,2.5-0.5,3.8-0.7c1.3-0.3,2.6-0.5,3.9-0.8c1.2-0.2,2.3-0.4,3.5-0.7c1.4-0.3,2.7-0.5,4.1-0.8
			c1.1-0.2,2.1-0.4,3.2-0.6c1.4-0.3,2.8-0.5,4.3-0.8c1-0.2,2.1-0.4,3.1-0.5c1.4-0.2,2.9-0.5,4.3-0.7c1-0.2,2-0.3,3-0.5
			c1.4-0.2,2.9-0.5,4.3-0.7c1-0.2,1.9-0.3,2.9-0.5c1.4-0.2,2.9-0.5,4.3-0.7c0.9-0.1,1.9-0.3,2.8-0.4c1.4-0.2,2.9-0.4,4.3-0.6
			c0.9-0.1,1.8-0.3,2.7-0.4c1.4-0.2,2.9-0.4,4.3-0.6c0.9-0.1,1.8-0.2,2.7-0.4c1.4-0.2,2.8-0.4,4.2-0.6c0.9-0.1,1.7-0.2,2.6-0.3
			c1.4-0.2,2.8-0.4,4.2-0.5c0.9-0.1,1.7-0.2,2.6-0.3c1.4-0.2,2.8-0.3,4.1-0.5c0.8-0.1,1.7-0.2,2.5-0.3c1.4-0.1,2.7-0.3,4.1-0.4
			c0.8-0.1,1.7-0.2,2.5-0.2c1.4-0.1,2.7-0.3,4-0.4c0.8-0.1,1.6-0.2,2.5-0.2c1.3-0.1,2.7-0.2,4-0.4c0.8-0.1,1.6-0.1,2.4-0.2
			c1.3-0.1,2.6-0.2,3.9-0.3c0.8-0.1,1.6-0.1,2.4-0.2c1.3-0.1,2.6-0.2,3.9-0.3c0.8-0.1,1.6-0.1,2.4-0.2c1.3-0.1,2.5-0.2,3.8-0.2
			c0.8,0,1.6-0.1,2.3-0.1c1.3-0.1,2.5-0.1,3.8-0.2c0.8,0,1.5-0.1,2.3-0.1c1.2-0.1,2.5-0.1,3.7-0.2c0.8,0,1.5-0.1,2.3-0.1
			c1.2,0,2.4-0.1,3.6-0.1c0.8,0,1.5,0,2.2-0.1c1.2,0,2.4-0.1,3.6-0.1c0.8,0,1.5,0,2.2,0c1.2,0,2.3,0,3.5-0.1c0.7,0,1.5,0,2.2,0
			c1.1,0,2.3,0,3.4,0c0.7,0,1.5,0,2.2,0c1.1,0,2.3,0,3.4,0c0.7,0,1.5,0,2.2,0c1.1,0,2.2,0,3.3,0c0.7,0,1.4,0,2.2,0
			c1.1,0,2.2,0,3.3,0.1c0.7,0,1.4,0,2.1,0.1c1.1,0,2.1,0.1,3.2,0.1c0.7,0,1.4,0,2.1,0.1c1,0,2.1,0.1,3.1,0.1c0.7,0,1.4,0.1,2.1,0.1
			c1,0,2.1,0.1,3.1,0.1c0.7,0,1.4,0.1,2.1,0.1c1,0.1,2,0.1,3,0.2c0.7,0,1.4,0.1,2.1,0.1c1,0.1,2,0.1,2.9,0.2c0.7,0,1.4,0.1,2,0.2
			c1,0.1,1.9,0.1,2.9,0.2c0.7,0.1,1.3,0.1,2,0.2c0.9,0.1,1.9,0.2,2.8,0.3c0.7,0.1,1.3,0.1,2,0.2c0.9,0.1,1.8,0.2,2.8,0.3
			c0.7,0.1,1.3,0.1,2,0.2c0.9,0.1,1.8,0.2,2.7,0.3c0.7,0.1,1.3,0.2,2,0.2c0.9,0.1,1.8,0.2,2.7,0.3c0.6,0.1,1.3,0.2,1.9,0.2
			c0.9,0.1,1.7,0.2,2.6,0.3c0.6,0.1,1.3,0.2,1.9,0.3c0.9,0.1,1.7,0.2,2.5,0.4c0.6,0.1,1.3,0.2,1.9,0.3c0.8,0.1,1.7,0.3,2.5,0.4
			c0.6,0.1,1.3,0.2,1.9,0.3c0.8,0.1,1.6,0.3,2.4,0.4c0.6,0.1,1.2,0.2,1.9,0.3c0.8,0.1,1.6,0.3,2.4,0.4c0.6,0.1,1.2,0.2,1.9,0.3
			c0.8,0.1,1.5,0.3,2.3,0.4c0.6,0.1,1.2,0.2,1.8,0.4c0.8,0.1,1.5,0.3,2.2,0.4c0.6,0.1,1.2,0.2,1.8,0.4c0.7,0.2,1.5,0.3,2.2,0.5
			c0.6,0.1,1.2,0.3,1.8,0.4c0.7,0.2,1.4,0.3,2.2,0.5c0.6,0.1,1.2,0.3,1.8,0.4c0.7,0.2,1.4,0.3,2.1,0.5c0.6,0.1,1.2,0.3,1.8,0.4
			c0.7,0.2,1.4,0.3,2,0.5c0.6,0.1,1.2,0.3,1.8,0.4c0.7,0.2,1.3,0.3,2,0.5c0.6,0.2,1.2,0.3,1.7,0.5c0.6,0.2,1.3,0.3,1.9,0.5
			c0.6,0.2,1.1,0.3,1.7,0.5c0.6,0.2,1.3,0.4,1.9,0.5c0.6,0.2,1.1,0.3,1.7,0.5c0.6,0.2,1.2,0.4,1.8,0.5c0.6,0.2,1.1,0.3,1.7,0.5
			c0.6,0.2,1.2,0.4,1.8,0.5c0.6,0.2,1.1,0.3,1.7,0.5c0.6,0.2,1.2,0.4,1.7,0.6c0.5,0.2,1.1,0.4,1.6,0.5c0.6,0.2,1.1,0.4,1.7,0.6
			c0.5,0.2,1.1,0.4,1.6,0.6c0.5,0.2,1.1,0.4,1.6,0.6c0.5,0.2,1.1,0.4,1.6,0.6c0.5,0.2,1.1,0.4,1.6,0.6c0.5,0.2,1.1,0.4,1.6,0.6
			c0.5,0.2,1,0.4,1.5,0.6c0.5,0.2,1,0.4,1.6,0.6c0.5,0.2,1,0.4,1.5,0.6c0.5,0.2,1,0.4,1.5,0.6c0.5,0.2,1,0.4,1.4,0.6
			c0.5,0.2,1,0.4,1.5,0.6c0.5,0.2,0.9,0.4,1.4,0.6c0.5,0.2,1,0.4,1.5,0.6c0.5,0.2,0.9,0.4,1.4,0.6c0.5,0.2,1,0.4,1.5,0.6
			c0.4,0.2,0.9,0.4,1.3,0.6c0.5,0.2,1,0.4,1.5,0.7c0.4,0.2,0.9,0.4,1.3,0.6c0.5,0.2,1,0.4,1.5,0.7c0.4,0.2,0.8,0.4,1.2,0.6
			c0.5,0.2,1,0.5,1.4,0.7c0.4,0.2,0.8,0.4,1.2,0.6c0.5,0.2,0.9,0.5,1.4,0.7c0.4,0.2,0.8,0.4,1.2,0.6c0.5,0.2,0.9,0.5,1.4,0.7
			c0.4,0.2,0.7,0.4,1.1,0.6c0.5,0.2,0.9,0.5,1.4,0.7c0.4,0.2,0.7,0.4,1.1,0.6c0.5,0.2,0.9,0.5,1.3,0.7c0.3,0.2,0.7,0.4,1,0.6
			c0.4,0.2,0.9,0.5,1.3,0.7c0.3,0.2,0.7,0.4,1,0.6c0.4,0.2,0.9,0.5,1.3,0.7c0.3,0.2,0.6,0.4,1,0.6c0.4,0.3,0.9,0.5,1.3,0.8
			c0.3,0.2,0.6,0.4,0.9,0.6c0.4,0.3,0.8,0.5,1.3,0.8c0.3,0.2,0.6,0.4,0.9,0.6c0.4,0.3,0.8,0.5,1.2,0.8c0.3,0.2,0.6,0.4,0.9,0.6
			c0.4,0.3,0.8,0.5,1.2,0.8c0.3,0.2,0.6,0.4,0.8,0.5c0.4,0.3,0.8,0.5,1.2,0.8c0.3,0.2,0.5,0.4,0.8,0.5c0.4,0.3,0.8,0.5,1.2,0.8
			c0.3,0.2,0.5,0.4,0.8,0.5c0.4,0.3,0.8,0.5,1.1,0.8c0.3,0.2,0.5,0.3,0.7,0.5c0.4,0.3,0.7,0.5,1.1,0.8c0.2,0.2,0.5,0.3,0.7,0.5
			c0.4,0.3,0.7,0.5,1.1,0.8c0.2,0.2,0.5,0.3,0.7,0.5c0.4,0.3,0.7,0.5,1.1,0.8c0.2,0.2,0.4,0.3,0.7,0.5c0.3,0.3,0.7,0.5,1,0.8
			c0.2,0.2,0.4,0.3,0.6,0.5c0.3,0.3,0.7,0.5,1,0.8c0.2,0.2,0.4,0.3,0.6,0.5c0.3,0.3,0.7,0.5,1,0.8c0.2,0.2,0.4,0.3,0.6,0.5
			c0.3,0.3,0.6,0.5,0.9,0.8c0.2,0.2,0.4,0.3,0.6,0.5c0.3,0.3,0.6,0.5,0.9,0.8c0.2,0.2,0.4,0.3,0.6,0.5c0.3,0.2,0.6,0.5,0.9,0.7
			c0.2,0.2,0.4,0.3,0.6,0.5c0.3,0.2,0.6,0.5,0.8,0.7c0.2,0.2,0.4,0.3,0.6,0.5c0.3,0.2,0.5,0.5,0.8,0.7c0.2,0.2,0.4,0.3,0.6,0.5
			c0.3,0.2,0.5,0.5,0.8,0.7c0.2,0.2,0.4,0.4,0.6,0.5c0.2,0.2,0.5,0.4,0.7,0.7c0.2,0.2,0.4,0.4,0.6,0.5c0.2,0.2,0.4,0.4,0.7,0.6
			c0.2,0.2,0.4,0.4,0.6,0.5c0.2,0.2,0.4,0.4,0.6,0.6c0.2,0.2,0.4,0.4,0.6,0.6c0.2,0.2,0.4,0.4,0.6,0.6c0.2,0.2,0.4,0.4,0.6,0.6
			c0.2,0.2,0.3,0.3,0.5,0.5c0.2,0.2,0.4,0.4,0.6,0.6c0.1,0.2,0.3,0.3,0.4,0.5c0.2,0.2,0.4,0.5,0.7,0.7c0.1,0.1,0.2,0.2,0.3,0.4
			c0.2,0.3,0.5,0.5,0.7,0.8c0.1,0.1,0.2,0.2,0.2,0.3c0.3,0.3,0.5,0.6,0.8,0.9c0,0,0.1,0.1,0.1,0.1c0.3,0.3,0.6,0.7,0.9,1
			c0,0,0,0,0,0c7.2,8.3,10,13.8,10,13.8s-1.6-4.4-5-11.6c0-0.1-0.1-0.1-0.1-0.2c-0.2-0.4-0.4-0.8-0.6-1.2c-0.1-0.1-0.1-0.2-0.2-0.4
			c-0.2-0.4-0.3-0.7-0.5-1.1c-0.1-0.1-0.1-0.3-0.2-0.4c-0.2-0.3-0.3-0.7-0.5-1c-0.1-0.2-0.2-0.3-0.3-0.5c-0.2-0.3-0.4-0.7-0.5-1
			c-0.1-0.2-0.2-0.4-0.3-0.6c-0.2-0.3-0.4-0.7-0.6-1.1c-0.1-0.2-0.2-0.4-0.3-0.6c-0.2-0.4-0.4-0.7-0.6-1.1c-0.1-0.2-0.2-0.4-0.3-0.6
			c-0.2-0.4-0.4-0.8-0.7-1.2c-0.1-0.2-0.2-0.4-0.3-0.5c-0.3-0.5-0.6-1-0.9-1.6c0-0.1-0.1-0.1-0.1-0.2c-0.7-1.2-1.4-2.5-2.2-3.8
			c-0.1-0.1-0.2-0.3-0.2-0.4c-0.3-0.5-0.6-1-0.9-1.5c-0.1-0.2-0.2-0.4-0.3-0.5c-0.3-0.5-0.6-1-0.9-1.5c-0.1-0.2-0.2-0.4-0.4-0.6
			c-0.3-0.5-0.6-1-0.9-1.5c-0.1-0.2-0.2-0.4-0.4-0.6c-0.3-0.5-0.6-1-1-1.5c-0.1-0.2-0.2-0.4-0.3-0.5c-0.3-0.5-0.7-1.1-1.1-1.6
			c-0.1-0.2-0.2-0.3-0.3-0.5c-0.4-0.6-0.8-1.2-1.2-1.8c-0.1-0.1-0.1-0.2-0.2-0.3c-0.5-0.7-1-1.4-1.5-2.2c0,0,0,0,0,0v0
			c-43.8-64.1-155.9-167.9-397.2-90.1v36.7c0,0,0,0,0,0v32c4.8-1.1,9.5-2.1,14.2-3.2C278.1,219,278.6,218.9,279.2,218.8z"/>
		<path class="st5" d="M263.3,153.5v5.4c61.9-20.1,295.7-80.2,408.5,111.9c8.6,9.4,12.2,16,12.4,16.5
			C683.1,284.3,596,46.3,263.3,153.5z"/>
		<path class="st6" d="M208.1,605.5c0,0-189.1-193.5-143.2-423C94.6,34.1,175.1,11.8,228.2,14.6c40.3,2.1,77,25.3,94.5,61.7
			c16.6,34.5,18.3,84.9-44.6,145.9c0,0-116.9,79.4-1.1,358.1C277,580.4,250.8,635,208.1,605.5z"/>
		<path class="st6" d="M352.2,588.8c0,0,152.2-346.9-31.6-368.5s-67.4,368.5-67.4,368.5S294.8,646.2,352.2,588.8z"/>
		<g>
			<g>
				<circle cx="231" cy="102.4" r="39.2"/>
				<path class="st7" d="M231,63.2c21.6,0,39.2,17.5,39.2,39.2s-17.5,39.2-39.2,39.2c-21.6,0-39.2-17.5-39.2-39.2
					S209.3,63.2,231,63.2 M231,51.8c-27.9,0-50.6,22.7-50.6,50.6S203.1,153,231,153s50.6-22.7,50.6-50.6S258.9,51.8,231,51.8
					L231,51.8z"/>
			</g>
			<g class="st8">
				<circle class="st9" cx="216.6" cy="87.3" r="30.4"/>
			</g>
			<circle class="st0" cx="215.9" cy="90.5" r="24.7"/>
		</g>
		<path class="st0" d="M306.4,219.5c4.5,0,9.3,0.3,14.2,0.9c183.8,21.6,31.6,368.5,31.6,368.5c-19.1,19.1-36.5,25.5-51.2,25.5
			c-29.3,0-47.8-25.5-47.8-25.5S142.9,219.5,306.4,219.5 M306.4,215.5c-28.1,0-50.3,10.6-65.9,31.6c-15.4,20.7-24.5,51.8-26.9,92.3
			c-1.9,32.1,0.2,70.2,6.4,113.4c10.5,73.3,29.3,136.7,29.5,137.3l0.2,0.7l0.4,0.6c0.8,1.1,20,27.2,51.1,27.2c18.1,0,36.3-9,54-26.7
			l0.5-0.5l0.3-0.7c0.2-0.6,24.9-57.1,42.3-125c10.2-40,16-76.1,17.1-107.3c1.4-39.4-4.7-71.2-18-94.5
			c-15.6-27.3-41.2-43.2-76.1-47.3C316,215.8,311.1,215.5,306.4,215.5L306.4,215.5z"/>
		<path d="M170.2,567.3c-18.4,10.2-51.5-4.2-58.3-25.4C132.1,537.7,169.5,551.4,170.2,567.3z"/>
		<path d="M111.2,599.4c19.6-21.1,51-29.9,61.6-20.9C165.1,598.3,136.1,608.3,111.2,599.4z"/>
		<path d="M168.9,639.8c-6.7-26.5,0-54.1,14-59C194.4,597.2,187.4,627.8,168.9,639.8z"/>
		<path class="st4" d="M286,700.2l9.2-26.3l7.3,26.3l7.3-26.3l9.2,26.3c0,0,36.1-83.9-16.5-82.7C249.9,616.3,286,700.2,286,700.2z"
			/>
		<path class="st4" d="M217,700.2l9.2-26.3l7.3,26.3l7.3-26.3l9.2,26.3c0,0,36.1-83.9-16.5-82.7C180.8,616.3,217,700.2,217,700.2z"
			/>
	</g>
	<g>
		<path class="st0" d="M389.5,332.9h30v51.5V486v51.9h-30l-0.3-3.8c-3.7,1.7-7.4,3-11.2,4c-3.8,1-7.8,1.5-12,1.5
			c-7.3,0-14.3-1.4-20.8-4.2c-6.6-2.8-12.3-6.6-17.1-11.4c-4.8-4.8-8.6-10.5-11.4-17.1c-2.8-6.6-4.2-13.6-4.2-20.9V384.4
			c0-7.3,1.4-14.2,4.2-20.7c2.8-6.5,6.6-12.2,11.4-17.1c4.8-4.9,10.5-8.8,17.1-11.6c6.6-2.8,13.6-4.2,20.9-4.2c4.2,0,8.2,0.5,12,1.5
			c3.8,1,7.5,2.3,11.2,4V332.9z M366.2,509.6c6.5,0,12-2.3,16.5-7c4.5-4.6,6.8-10.2,6.8-16.7V384c0-6.5-2.3-12-6.8-16.5
			c-4.5-4.5-10-6.8-16.5-6.8c-6.5,0-12,2.3-16.7,6.8c-4.6,4.5-7,10-7,16.5v101.9c0,6.5,2.3,12,7,16.7
			C354.2,507.3,359.7,509.6,366.2,509.6z"/>
		<path class="st0" d="M522.2,242h30v295.9h-53.7c-7.3,0-14.2-1.4-20.7-4.2c-6.5-2.8-12.1-6.6-16.9-11.4
			c-4.8-4.8-8.6-10.5-11.4-17.1c-2.8-6.6-4.2-13.6-4.2-20.9v-97.6c0-7.3,1.4-14.2,4.2-20.7c2.8-6.5,6.6-12.2,11.4-17.1
			c4.8-4.9,10.4-8.8,16.9-11.6c6.5-2.8,13.4-4.2,20.7-4.2H515h7.2V242z M522.2,362.9H515h-16.5c-6.5,0-12,2.3-16.5,7
			c-4.5,4.6-6.8,10.2-6.8,16.7v97.6c0,6.5,2.3,12,6.8,16.7c4.5,4.6,10,7,16.5,7h23.7V362.9z"/>
		<path class="st0" d="M654.5,332.9h30v75.2c0,3.1-0.3,7.1-0.8,12c-0.6,4.9-1.3,10.6-2.3,16.9c-1,6.3-2.2,13-3.6,20.1
			c-1.4,7-3.1,14.1-5.1,21.1c-5.6,21.7-11.8,37.4-18.4,47.1c-6.6,9.7-14.4,14.6-23.5,14.6c-9,0-16.8-4.9-23.5-14.6
			c-6.6-9.7-12.8-25.4-18.4-47.1c-1.7-7-3.2-14.1-4.6-21.1c-1.4-7-2.6-13.7-3.6-20.1c-1-6.3-1.8-12-2.3-16.9
			c-0.6-4.9-0.8-8.9-0.8-12v-75.2h30v75.2c0,3.7,0.7,10.7,2.1,21.1c1.4,10.4,3.7,21.8,6.8,34.2c3.1,12.1,5.9,21.4,8.5,27.9
			c2.5,6.5,4.5,11.3,5.9,14.4c1.7-3.1,3.8-7.9,6.3-14.4c2.5-6.5,5.2-15.8,8-27.9c3.1-12.4,5.4-23.8,7-34.2
			c1.5-10.4,2.3-17.5,2.3-21.1V332.9z"/>
		<path class="st0" d="M816.8,486.3c0,7.3-1.4,14.3-4.2,20.9c-2.8,6.6-6.7,12.3-11.6,17.1c-4.9,4.8-10.6,8.6-17.1,11.4
			c-6.5,2.8-13.3,4.2-20.6,4.2c-7.3,0-14.2-1.4-20.8-4.2c-6.6-2.8-12.3-6.6-17.1-11.4c-4.8-4.8-8.6-10.5-11.4-17.1
			c-2.8-6.6-4.2-13.6-4.2-20.9V384.8c0-7.3,1.4-14.2,4.2-20.7c2.8-6.5,6.6-12.2,11.4-17.1c4.8-4.9,10.5-8.8,17.1-11.6
			c6.6-2.8,13.5-4.2,20.8-4.2c7.3,0,14.2,1.4,20.6,4.2c6.5,2.8,12.1,6.7,17.1,11.6c4.9,4.9,8.8,10.6,11.6,17.1
			c2.8,6.5,4.2,13.4,4.2,20.7v30.8l-76.9,43v27.8c0,6.5,2.3,12,6.8,16.7c4.6,4.6,10.1,7,16.6,7c6.5,0,12.1-2.3,16.6-7
			c4.6-4.7,6.8-10.2,6.8-16.7H816.8z M739.9,423.8l46.9-26.2v-13.1c0-6.5-2.3-12-6.8-16.5c-4.6-4.5-10.1-6.8-16.6-6.8
			c-6.5,0-12.1,2.3-16.6,6.8c-4.6,4.5-6.8,10-6.8,16.5V423.8z"/>
		<path class="st0" d="M896.3,332.9c7.3,0,14.2,1.4,20.7,4.2c6.5,2.8,12.1,6.7,16.9,11.6c4.8,4.9,8.6,10.6,11.4,17.1
			c2.8,6.5,4.2,13.4,4.2,20.7v151.3h-30V386.6c0-6.5-2.3-12-6.8-16.7c-4.5-4.7-10-7-16.5-7c-6.5,0-12,2.3-16.7,7
			c-4.7,4.6-7,10.2-7,16.7v97.2v54.1h-30v-54.1v-97.2v-53.7h30v5.5C880.5,334.7,888.4,332.9,896.3,332.9z"/>
		<path class="st0" d="M1004.9,332.9h31.3v30h-31.3v120.9c0,6.5,2.3,12,7,16.7c4.6,4.6,10.2,7,16.7,7h7.6v30h-7.6
			c-7.3,0-14.3-1.4-20.9-4.2c-6.6-2.8-12.3-6.6-17.1-11.4c-4.8-4.8-8.6-10.5-11.4-17.1c-2.8-6.6-4.2-13.6-4.2-20.9V279.2h30V332.9z"
			/>
		<path class="st0" d="M1115.3,332.9h11v30h-11c-6.5,0-12,2.3-16.7,7c-4.7,4.6-7,10.2-7,16.7v97.2v54.1h-30v-54.1v-97.2v-53.7h30
			v5.5C1099.5,334.7,1107.4,332.9,1115.3,332.9z"/>
		<path class="st0" d="M1181.6,274.1v34.7h-30v-34.7H1181.6z M1151.6,332.9h30v205h-30V332.9z"/>
		<path class="st0" d="M1260.3,333.3c7.3,0,14.2,1.4,20.7,4.2c6.5,2.8,12.2,6.7,17.1,11.6c4.9,4.9,8.8,10.6,11.6,17.1
			c2.8,6.5,4.2,13.4,4.2,20.7v97.5c0,7.3-1.4,14.3-4.2,20.9c-2.8,6.6-6.7,12.3-11.6,17.1c-4.9,4.8-10.6,8.6-17.1,11.4
			c-6.5,2.8-13.4,4.2-20.7,4.2c-7.6,0-15.4-1.8-23.2-5.4v88.7h-30V484.4v-97.5v-53.6h30v5.4C1244.9,335.1,1252.7,333.3,1260.3,333.3
			z M1283.9,386.6c0-6.5-2.3-12-7-16.5c-4.6-4.5-10.2-6.8-16.7-6.8c-6.5,0-12,2.3-16.5,6.8c-4.5,4.5-6.8,10-6.8,16.5v97.9
			c0,6.5,2.3,12,6.8,16.5c4.5,4.5,10,6.8,16.5,6.8c6.5,0,12-2.3,16.7-6.8c4.7-4.5,7-10,7-16.5V386.6z"/>
		<path class="st0" d="M1388.6,360.8c-6.5,0-12.1,2.3-16.6,6.9c-4.6,4.6-6.8,10.2-6.8,16.8v9.3c0,4.8,1.3,9.1,3.8,13.1
			c2.6,3.9,6.1,6.7,10.7,8.4l29.9,12.2c9.9,4.2,17.8,10.8,23.9,19.8c6.1,9,9.1,18.8,9.1,29.5v9.3c0,7.3-1.4,14.3-4.2,20.9
			c-2.8,6.6-6.7,12.3-11.6,17.1c-4.9,4.8-10.6,8.6-17.1,11.4c-6.5,2.8-13.4,4.2-20.7,4.2c-7.3,0-14.3-1.4-20.9-4.2
			c-6.6-2.8-12.3-6.6-17.1-11.4c-4.8-4.8-8.6-10.5-11.4-17.1c-2.8-6.6-4.2-13.6-4.2-20.9h30c0,6.5,2.3,12,6.8,16.7
			c4.5,4.7,10.1,7,16.6,7c6.5,0,12.2-2.3,16.8-7c4.7-4.6,7-10.2,7-16.7v-9.3c0-4.8-1.4-9.1-4.1-12.9c-2.7-3.8-6.3-6.7-10.9-8.6
			l-29.4-12.2c-10-3.9-18-10.4-24-19.4c-6-9-9-19-9-29.9v-9.3c0-7.3,1.4-14.2,4.2-20.7c2.8-6.5,6.6-12.2,11.4-17.1
			c4.8-4.9,10.5-8.8,17.1-11.6c6.6-2.8,13.6-4.2,20.9-4.2c7.3,0,14.2,1.4,20.7,4.2c6.5,2.8,12.2,6.7,17.1,11.6
			c4.9,4.9,8.8,10.6,11.6,17.1c2.8,6.5,4.2,13.4,4.2,20.7h-30c0-6.6-2.4-12.2-7-16.8C1400.7,363.1,1395.1,360.8,1388.6,360.8z"/>
	</g>
</g>
</svg>
