<?xml version="1.0" encoding="utf-8"?>
<!-- Generator: Adobe Illustrator 24.0.2, SVG Export Plug-In . SVG Version: 6.00 Build 0)  -->
<svg version="1.1" id="Capa_1" xmlns="http://www.w3.org/2000/svg" xmlns:xlink="http://www.w3.org/1999/xlink" x="0px" y="0px"
	 viewBox="0 0 1486.5 751.6" style="enable-background:new 0 0 1486.5 751.6;" xml:space="preserve">
<style type="text/css">
	.st0{fill:#FFFFFF;}
	.st1{fill:#EB6545;}
	.st2{fill:#00A099;}
	.st3{fill:#3FB4D0;}
	.st4{fill:#F29100;}
	.st5{fill:#D77B0F;}
	.st6{fill:#1D1F3E;}
	.st7{fill:#35A8E0;}
	.st8{display:none;}
	.st9{display:inline;fill:#FFFFFF;}
	.st10{fill:#1B203D;}
</style>
<title>Recurso 4</title>
<g>
	<g>
		<path class="st0" d="M266.4,647.2c54.3,0,16.3,88.1,16.3,88.1l-9.8-28l-7.8,28l-7.8-28l-9.8,28c0,0-37.9-88.1,16.3-88.1
			c0.4,0,0.8,0,1.2,0C265.6,647.2,266,647.2,266.4,647.2 M266.4,642.9L266.4,642.9c-0.4,0-0.8,0-1.2,0c-0.4,0-0.8,0-1.2,0
			c-12.6,0-21.8,4.3-27.5,12.9c-16.6,25.3,6.2,79,7.1,81.3l4.4,10.3l3.7-10.5l5.2-14.9l4.1,14.6l4.2,15.1l4.2-15.1l4.1-14.6
			l5.2,14.9l3.7,10.5l4.4-10.3c1-2.3,23.8-56,7.1-81.3C288.3,647.2,279,642.9,266.4,642.9L266.4,642.9z"/>
		<path class="st0" d="M192.8,647.2c54.3,0,16.3,88.1,16.3,88.1l-9.8-28l-7.8,28l-7.8-28l-9.8,28c0,0-37.9-88.1,16.3-88.1
			c0.4,0,0.8,0,1.2,0C192,647.2,192.4,647.2,192.8,647.2 M192.8,642.9L192.8,642.9c-0.4,0-0.8,0-1.2,0c-0.4,0-0.8,0-1.2,0
			c-12.6,0-21.8,4.3-27.5,12.9c-16.6,25.3,6.2,79,7.2,81.3l4.4,10.3l3.7-10.5l5.2-14.9l4.1,14.6l4.2,15.1l4.2-15.1l4.1-14.6
			l5.2,14.9l3.7,10.5l4.4-10.3c1-2.3,23.8-56,7.1-81.3C214.6,647.2,205.4,642.9,192.8,642.9L192.8,642.9z"/>
		<path class="st0" d="M358.6,15.6c132.8,0,315.3,42.9,313.5,279.7c0,0-49-94.7-248.3-94.7c-54.8,0-120.8,7.1-200.4,25.3V29.5
			C223.4,29.5,282.9,15.6,358.6,15.6 M358.6,11.2L358.6,11.2c-75.3,0-135.6,13.9-136.2,14.1l-3.4,0.8v3.4v196.4v5.5l5.3-1.2
			c73.2-16.7,140.2-25.2,199.4-25.2c102,0,163.2,25.4,196.6,46.7c35.8,22.8,47.8,45.5,47.9,45.7l8.1,15.6l0.1-17.6
			c0.3-44.9-6-85.2-18.8-119.8c-11.7-31.6-29-59.1-51.5-81.8c-30.1-30.3-69.8-52.6-118.2-66.3C449.8,16.7,406.3,11.2,358.6,11.2
			L358.6,11.2z"/>
		<path class="st0" d="M70.8,565.8c22,0,52.7,13,53.4,27.9c-4.4,2.5-9.7,3.6-15.2,3.6c-18.9,0-41.3-13.1-46.9-30.7
			C64.8,566.1,67.7,565.8,70.8,565.8 M70.8,563.2L70.8,563.2c-3.4,0-6.5,0.3-9.2,0.9l-2.8,0.6l0.9,2.8c2.8,8.8,9.8,17.1,19.5,23.3
			c9.2,5.8,20.1,9.2,29.8,9.2c6.3,0,11.8-1.3,16.5-3.9l1.4-0.8l-0.1-1.6c-0.4-7.9-7.5-15.6-20.2-21.7
			C95.7,566.5,82,563.2,70.8,563.2L70.8,563.2z"/>
		<path class="st0" d="M114,601.9c5.4,0,9.9,1.2,12.9,3.7c-6.1,15.8-25,25.7-45.3,25.7c-6.8,0-13.7-1.1-20.4-3.5
			C76.6,611.4,98.9,601.9,114,601.9 M114,599.3v2.6V599.3L114,599.3c-17.5,0-40,11-54.7,26.8l-2.7,2.9l3.7,1.3
			c6.8,2.4,13.9,3.6,21.3,3.6c22.2,0,41.3-11,47.7-27.4l0.7-1.7l-1.4-1.2C125.3,600.8,120.2,599.3,114,599.3L114,599.3z"/>
		<path class="st0" d="M137.6,608c12.4,17.5,4.9,50.1-14.9,62.9C115.6,642.7,122.7,613.3,137.6,608 M138.6,604.9l-1.9,0.7
			c-8.1,2.9-14.3,11.6-17.4,24.7c-3,12.4-2.7,27.5,0.8,41.3l0.9,3.5l3.1-2c10.5-6.8,18.4-19.3,21.1-33.6c2.4-12.6,0.4-24.7-5.5-33.1
			L138.6,604.9L138.6,604.9z"/>
		<path class="st0" d="M177.2,4.3c3,0,6,0.1,8.8,0.2c43,2.3,82.1,27,100.7,65.8c17.7,36.8,19.5,90.5-47.5,155.5
			c0,0-124.7,84.6-1.2,381.7c0,0-17.3,36.1-46.9,36.1c-8,0-16.8-2.6-26.5-9.3c0,0-201.6-206.2-152.6-450.9
			C42,33.3,120.8,4.3,177.2,4.3 M177.2,0v4.3V0c-16.3,0-32,2.4-46.7,7.1c-17.7,5.7-34.1,14.9-48.6,27.2
			C46.3,64.7,21.3,114.6,7.7,182.7c-11.3,56.4-10.2,115.4,3.2,175.5c10.7,47.9,29.3,96.6,55.2,144.6c23,42.7,47.7,77,64.3,98.3
			c18.1,23.1,30.5,35.9,31,36.4l0.3,0.3l0.3,0.2c9.7,6.7,19.4,10.1,29,10.1c31.9,0,50.1-37,50.8-38.6l0.8-1.8L242,606
			c-63.1-151.7-59.7-246.1-45.8-298.6c7.8-29.5,19.8-49.1,28.4-60.4c9.3-12.2,16.9-17.5,17-17.5l0.3-0.2l0.3-0.3
			c31.1-30.2,50.2-60.7,56.8-90.6c5.2-24,2.4-47.5-8.3-70c-19-39.7-59-65.9-104.4-68.3C183.2,0.1,180.2,0,177.2,0L177.2,0z"/>
		<path class="st1" d="M223.4,29.5c0,0,451.6-105.9,448.7,265.7c0,0-79.5-153.9-448.7-69.4V29.5z"/>
		<path class="st2" d="M223.4,29.5v196.4c185.2-42.4,297.6-24.8,363.5,3.3c15.5-42.4,14.6-88.3-6.3-128.4
			c-10.2-19.5-24.2-36-40.9-49C407.3-13.6,223.4,29.5,223.4,29.5z"/>
		<path class="st3" d="M223.4,29.5v196.4c99.3-22.7,177.6-28.2,239.1-24.1c32-20.5,52.5-52.4,52.5-88.1c0-35.7-20.5-67.5-52.4-88
			C345.7,0.9,223.4,29.5,223.4,29.5z"/>
		<path class="st4" d="M240.4,222.2c1.7-0.4,3.3-0.7,5-1.1c1.1-0.2,2.2-0.5,3.4-0.7c1.5-0.3,2.9-0.6,4.4-0.9
			c1.3-0.3,2.6-0.5,3.9-0.8c1.4-0.3,2.7-0.5,4-0.8c1.4-0.3,2.8-0.5,4.1-0.8c1.2-0.2,2.5-0.5,3.7-0.7c1.5-0.3,2.9-0.6,4.4-0.8
			c1.1-0.2,2.3-0.4,3.4-0.6c1.5-0.3,3-0.6,4.5-0.8c1.1-0.2,2.2-0.4,3.3-0.6c1.5-0.3,3.1-0.5,4.6-0.8c1.1-0.2,2.1-0.3,3.2-0.5
			c1.5-0.3,3.1-0.5,4.6-0.8c1-0.2,2-0.3,3.1-0.5c1.5-0.2,3.1-0.5,4.6-0.7c1-0.2,2-0.3,3-0.4c1.5-0.2,3.1-0.5,4.6-0.7
			c1-0.1,1.9-0.3,2.9-0.4c1.5-0.2,3-0.4,4.6-0.6c1-0.1,1.9-0.3,2.8-0.4c1.5-0.2,3-0.4,4.5-0.6c0.9-0.1,1.8-0.2,2.8-0.3
			c1.5-0.2,3-0.4,4.5-0.6c0.9-0.1,1.8-0.2,2.7-0.3c1.5-0.2,3-0.3,4.4-0.5c0.9-0.1,1.8-0.2,2.7-0.3c1.5-0.2,2.9-0.3,4.4-0.5
			c0.9-0.1,1.8-0.2,2.6-0.3c1.4-0.1,2.9-0.3,4.3-0.4c0.9-0.1,1.8-0.2,2.6-0.2c1.4-0.1,2.8-0.3,4.2-0.4c0.9-0.1,1.7-0.1,2.6-0.2
			c1.4-0.1,2.8-0.2,4.2-0.3c0.9-0.1,1.7-0.1,2.6-0.2c1.4-0.1,2.8-0.2,4.1-0.3c0.8-0.1,1.7-0.1,2.5-0.2c1.4-0.1,2.7-0.2,4.1-0.3
			c0.8-0.1,1.7-0.1,2.5-0.1c1.3-0.1,2.7-0.2,4-0.2c0.8,0,1.6-0.1,2.5-0.1c1.3-0.1,2.6-0.1,3.9-0.2c0.8,0,1.6-0.1,2.4-0.1
			c1.3-0.1,2.6-0.1,3.9-0.1c0.8,0,1.6,0,2.4-0.1c1.3,0,2.6-0.1,3.8-0.1c0.8,0,1.6,0,2.4-0.1c1.2,0,2.5-0.1,3.7-0.1
			c0.8,0,1.6,0,2.4,0c1.2,0,2.5,0,3.7,0c0.8,0,1.6,0,2.3,0c1.2,0,2.4,0,3.6,0c0.8,0,1.5,0,2.3,0c1.2,0,2.4,0,3.5,0
			c0.8,0,1.5,0,2.3,0c1.2,0,2.3,0,3.5,0.1c0.8,0,1.5,0,2.3,0.1c1.1,0,2.3,0.1,3.4,0.1c0.8,0,1.5,0.1,2.2,0.1c1.1,0,2.2,0.1,3.3,0.1
			c0.7,0,1.5,0.1,2.2,0.1c1.1,0,2.2,0.1,3.3,0.2c0.7,0,1.5,0.1,2.2,0.1c1.1,0.1,2.1,0.1,3.2,0.2c0.7,0,1.5,0.1,2.2,0.1
			c1.1,0.1,2.1,0.1,3.1,0.2c0.7,0.1,1.4,0.1,2.2,0.2c1,0.1,2.1,0.2,3.1,0.2c0.7,0.1,1.4,0.1,2.1,0.2c1,0.1,2,0.2,3,0.3
			c0.7,0.1,1.4,0.1,2.1,0.2c1,0.1,2,0.2,2.9,0.3c0.7,0.1,1.4,0.1,2.1,0.2c1,0.1,1.9,0.2,2.9,0.3c0.7,0.1,1.4,0.2,2.1,0.2
			c1,0.1,1.9,0.2,2.8,0.3c0.7,0.1,1.4,0.2,2.1,0.3c0.9,0.1,1.9,0.2,2.8,0.4c0.7,0.1,1.4,0.2,2,0.3c0.9,0.1,1.8,0.3,2.7,0.4
			c0.7,0.1,1.4,0.2,2,0.3c0.9,0.1,1.8,0.3,2.6,0.4c0.7,0.1,1.3,0.2,2,0.3c0.9,0.1,1.7,0.3,2.6,0.4c0.7,0.1,1.3,0.2,2,0.3
			c0.8,0.1,1.7,0.3,2.5,0.4c0.7,0.1,1.3,0.2,2,0.4c0.8,0.2,1.6,0.3,2.5,0.5c0.7,0.1,1.3,0.3,2,0.4c0.8,0.2,1.6,0.3,2.4,0.5
			c0.6,0.1,1.3,0.3,1.9,0.4c0.8,0.2,1.6,0.3,2.3,0.5c0.6,0.1,1.3,0.3,1.9,0.4c0.8,0.2,1.5,0.3,2.3,0.5c0.6,0.1,1.3,0.3,1.9,0.4
			c0.7,0.2,1.5,0.3,2.2,0.5c0.6,0.1,1.3,0.3,1.9,0.5c0.7,0.2,1.4,0.4,2.2,0.5c0.6,0.2,1.2,0.3,1.9,0.5c0.7,0.2,1.4,0.4,2.1,0.5
			c0.6,0.2,1.2,0.3,1.8,0.5c0.7,0.2,1.4,0.4,2.1,0.6c0.6,0.2,1.2,0.3,1.8,0.5c0.7,0.2,1.3,0.4,2,0.6c0.6,0.2,1.2,0.3,1.8,0.5
			c0.7,0.2,1.3,0.4,2,0.6c0.6,0.2,1.2,0.4,1.8,0.5c0.6,0.2,1.3,0.4,1.9,0.6c0.6,0.2,1.2,0.4,1.8,0.6c0.6,0.2,1.2,0.4,1.8,0.6
			c0.6,0.2,1.2,0.4,1.7,0.6c0.6,0.2,1.2,0.4,1.8,0.6c0.6,0.2,1.2,0.4,1.7,0.6c0.6,0.2,1.2,0.4,1.7,0.6c0.6,0.2,1.1,0.4,1.7,0.6
			c0.6,0.2,1.1,0.4,1.7,0.6c0.6,0.2,1.1,0.4,1.7,0.6c0.6,0.2,1.1,0.4,1.6,0.6c0.6,0.2,1.1,0.4,1.7,0.6c0.5,0.2,1.1,0.4,1.6,0.6
			c0.6,0.2,1.1,0.4,1.7,0.7c0.5,0.2,1,0.4,1.5,0.6c0.5,0.2,1.1,0.4,1.6,0.7c0.5,0.2,1,0.4,1.5,0.6c0.5,0.2,1.1,0.5,1.6,0.7
			c0.5,0.2,1,0.4,1.5,0.6c0.5,0.2,1.1,0.5,1.6,0.7c0.5,0.2,0.9,0.4,1.4,0.6c0.5,0.2,1,0.5,1.6,0.7c0.5,0.2,0.9,0.4,1.4,0.6
			c0.5,0.2,1,0.5,1.5,0.7c0.4,0.2,0.9,0.4,1.3,0.6c0.5,0.2,1,0.5,1.5,0.7c0.4,0.2,0.9,0.4,1.3,0.6c0.5,0.2,1,0.5,1.5,0.7
			c0.4,0.2,0.8,0.4,1.2,0.6c0.5,0.3,1,0.5,1.5,0.8c0.4,0.2,0.8,0.4,1.2,0.6c0.5,0.3,1,0.5,1.5,0.8c0.4,0.2,0.8,0.4,1.1,0.6
			c0.5,0.3,1,0.5,1.4,0.8c0.4,0.2,0.7,0.4,1.1,0.6c0.5,0.3,0.9,0.5,1.4,0.8c0.4,0.2,0.7,0.4,1.1,0.6c0.5,0.3,0.9,0.5,1.4,0.8
			c0.3,0.2,0.7,0.4,1,0.6c0.5,0.3,0.9,0.5,1.4,0.8c0.3,0.2,0.7,0.4,1,0.6c0.4,0.3,0.9,0.5,1.3,0.8c0.3,0.2,0.6,0.4,1,0.6
			c0.4,0.3,0.9,0.5,1.3,0.8c0.3,0.2,0.6,0.4,0.9,0.6c0.4,0.3,0.9,0.5,1.3,0.8c0.3,0.2,0.6,0.4,0.9,0.6c0.4,0.3,0.8,0.6,1.3,0.8
			c0.3,0.2,0.6,0.4,0.9,0.6c0.4,0.3,0.8,0.6,1.2,0.8c0.3,0.2,0.5,0.4,0.8,0.6c0.4,0.3,0.8,0.6,1.2,0.8c0.3,0.2,0.5,0.4,0.8,0.6
			c0.4,0.3,0.8,0.6,1.2,0.8c0.3,0.2,0.5,0.4,0.8,0.6c0.4,0.3,0.8,0.6,1.2,0.8c0.3,0.2,0.5,0.4,0.7,0.5c0.4,0.3,0.8,0.6,1.1,0.8
			c0.2,0.2,0.5,0.4,0.7,0.5c0.4,0.3,0.7,0.6,1.1,0.8c0.2,0.2,0.5,0.4,0.7,0.5c0.4,0.3,0.7,0.6,1.1,0.8c0.2,0.2,0.4,0.3,0.7,0.5
			c0.4,0.3,0.7,0.6,1.1,0.8c0.2,0.2,0.4,0.3,0.6,0.5c0.3,0.3,0.7,0.6,1,0.8c0.2,0.2,0.4,0.4,0.6,0.5c0.3,0.3,0.6,0.5,1,0.8
			c0.2,0.2,0.4,0.4,0.6,0.5c0.3,0.3,0.6,0.5,0.9,0.8c0.2,0.2,0.4,0.4,0.6,0.5c0.3,0.3,0.6,0.5,0.9,0.8c0.2,0.2,0.4,0.4,0.6,0.5
			c0.3,0.3,0.6,0.5,0.9,0.8c0.2,0.2,0.4,0.4,0.6,0.5c0.3,0.2,0.5,0.5,0.8,0.7c0.2,0.2,0.4,0.4,0.6,0.6c0.3,0.2,0.5,0.5,0.7,0.7
			c0.2,0.2,0.4,0.4,0.6,0.6c0.2,0.2,0.5,0.5,0.7,0.7c0.2,0.2,0.4,0.4,0.6,0.6c0.2,0.2,0.4,0.4,0.7,0.6c0.2,0.2,0.4,0.4,0.6,0.6
			c0.2,0.2,0.4,0.4,0.6,0.6c0.2,0.2,0.4,0.4,0.6,0.6c0.2,0.2,0.4,0.4,0.5,0.5c0.2,0.2,0.4,0.5,0.6,0.7c0.2,0.2,0.3,0.3,0.5,0.5
			c0.2,0.3,0.5,0.5,0.7,0.7c0.1,0.1,0.2,0.3,0.4,0.4c0.3,0.3,0.5,0.6,0.8,0.8c0.1,0.1,0.2,0.2,0.3,0.3c0.3,0.3,0.6,0.6,0.8,0.9
			c0,0,0.1,0.1,0.1,0.1c0.3,0.4,0.6,0.7,0.9,1.1c0,0,0,0,0,0c7.6,8.8,10.7,14.7,10.7,14.7s-1.7-4.6-5.4-12.4c0-0.1-0.1-0.1-0.1-0.2
			c-0.2-0.4-0.4-0.8-0.6-1.2c-0.1-0.1-0.1-0.3-0.2-0.4c-0.2-0.4-0.4-0.8-0.6-1.1c-0.1-0.2-0.2-0.3-0.2-0.5c-0.2-0.4-0.4-0.7-0.6-1.1
			c-0.1-0.2-0.2-0.4-0.3-0.6c-0.2-0.4-0.4-0.7-0.6-1.1c-0.1-0.2-0.2-0.4-0.3-0.6c-0.2-0.4-0.4-0.7-0.6-1.1c-0.1-0.2-0.2-0.4-0.3-0.6
			c-0.2-0.4-0.4-0.8-0.6-1.2c-0.1-0.2-0.2-0.4-0.3-0.6c-0.2-0.4-0.5-0.9-0.7-1.3c-0.1-0.2-0.2-0.4-0.3-0.6c-0.3-0.6-0.6-1.1-0.9-1.7
			c0-0.1-0.1-0.1-0.1-0.2c-0.7-1.3-1.5-2.7-2.3-4c-0.1-0.1-0.2-0.3-0.3-0.4c-0.3-0.5-0.6-1.1-1-1.6c-0.1-0.2-0.2-0.4-0.3-0.6
			c-0.3-0.5-0.6-1-0.9-1.6c-0.1-0.2-0.3-0.4-0.4-0.6c-0.3-0.5-0.6-1-1-1.6c-0.1-0.2-0.3-0.4-0.4-0.6c-0.3-0.5-0.7-1.1-1-1.6
			c-0.1-0.2-0.2-0.4-0.4-0.6c-0.4-0.6-0.8-1.2-1.1-1.8c-0.1-0.2-0.2-0.3-0.3-0.5c-0.4-0.6-0.9-1.3-1.3-2c-0.1-0.1-0.1-0.2-0.2-0.3
			c-0.5-0.8-1-1.5-1.6-2.3c0,0,0,0,0,0v0c-46.7-68.3-166.2-178.9-423.4-96v39.2c0,0,0,0,0,0v34.1c5.1-1.2,10.1-2.3,15.1-3.4
			C239.2,222.4,239.8,222.3,240.4,222.2z"/>
		<path class="st5" d="M223.4,152.6v5.8c66-21.4,315.2-85.5,435.4,119.3c9.2,10,13,17,13.3,17.6C670.9,292,578.1,38.4,223.4,152.6z"
			/>
		<path class="st6" d="M164.6,634.4c0,0-201.6-206.2-152.6-450.9C43.6,25.3,129.4,1.6,186,4.6c43,2.3,82.1,27,100.7,65.8
			c17.7,36.8,19.5,90.5-47.5,155.5c0,0-124.7,84.6-1.2,381.7C238,607.6,210,665.9,164.6,634.4z"/>
		<path class="st6" d="M318.2,616.6c0,0,162.3-369.7-33.7-392.8s-71.8,392.8-71.8,392.8S257,677.8,318.2,616.6z"/>
		<g>
			<g>
				<circle cx="188.9" cy="98.1" r="41.8"/>
				<path class="st7" d="M188.9,56.3c23.1,0,41.8,18.7,41.8,41.8s-18.7,41.8-41.8,41.8c-23.1,0-41.8-18.7-41.8-41.8
					S165.9,56.3,188.9,56.3 M188.9,44.2c-29.7,0-53.9,24.2-53.9,53.9s24.2,53.9,53.9,53.9s53.9-24.2,53.9-53.9
					S218.7,44.2,188.9,44.2L188.9,44.2z"/>
			</g>
			<g class="st8">
				<circle class="st9" cx="173.6" cy="82.1" r="32.4"/>
			</g>
			<circle class="st0" cx="172.9" cy="85.4" r="26.4"/>
		</g>
		<path class="st0" d="M269.3,222.9c4.8,0,9.9,0.3,15.2,0.9c195.9,23.1,33.7,392.8,33.7,392.8c-20.4,20.4-38.9,27.2-54.5,27.2
			c-31.3,0-51-27.2-51-27.2S95.1,222.9,269.3,222.9 M269.3,218.6c-30,0-53.6,11.3-70.3,33.7c-16.4,22.1-26.1,55.2-28.7,98.4
			c-2.1,34.2,0.2,74.8,6.8,120.8c11.2,78.1,31.2,145.7,31.4,146.3l0.2,0.7l0.4,0.6c0.9,1.2,21.4,29,54.4,29
			c19.3,0,38.7-9.6,57.6-28.4l0.6-0.6l0.3-0.7c0.3-0.6,26.6-60.9,45.1-133.3c10.9-42.6,17-81.1,18.2-114.4c1.5-42-5-75.9-19.2-100.7
			c-16.6-29.1-43.9-46-81.2-50.4C279.6,219,274.3,218.6,269.3,218.6L269.3,218.6z"/>
		<path d="M124.2,593.7c-19.6,10.9-54.9-4.4-62.1-27.1C83.6,562.1,123.5,576.7,124.2,593.7z"/>
		<path d="M61.3,627.9c20.9-22.4,54.4-31.8,65.7-22.2C118.7,626.7,87.9,637.4,61.3,627.9z"/>
		<path d="M122.7,671c-7.2-28.3,0-57.7,14.9-62.9C150,625.5,142.5,658.2,122.7,671z"/>
		<path class="st4" d="M247.7,735.4l9.8-28l7.8,28l7.8-28l9.8,28c0,0,38.5-89.5-17.6-88.1C209.1,645.9,247.7,735.4,247.7,735.4z"/>
		<path class="st4" d="M174,735.4l9.8-28l7.8,28l7.8-28l9.8,28c0,0,38.5-89.5-17.6-88.1C135.5,645.9,174,735.4,174,735.4z"/>
	</g>
	<g>
		<path class="st0" d="M333.1,341.6c4.5,0,8.8,0.5,12.8,1.6c4.1,1,8,2.4,11.9,4.2v-3.5h32v54.9V507v55.3h-32l-0.3-4.1
			c-3.9,1.8-7.9,3.2-11.9,4.3c-4,1-8.3,1.6-12.8,1.6c-7.8,0-15.2-1.5-22.2-4.5c-7-3-13.1-7-18.2-12.1c-5.1-5.1-9.1-11.2-12.1-18.2
			c-3-7-4.5-14.5-4.5-22.3V398.7c0-7.8,1.5-15.1,4.5-22c3-6.9,7.1-13,12.2-18.2c5.1-5.2,11.2-9.4,18.2-12.4
			C317.9,343.1,325.3,341.6,333.1,341.6 M333.1,532.2c6.9,0,12.8-2.5,17.6-7.4c4.8-5,7.2-10.9,7.2-17.8V398.3
			c0-6.9-2.4-12.8-7.2-17.6c-4.8-4.8-10.7-7.2-17.6-7.2c-6.9,0-12.8,2.4-17.8,7.2c-5,4.8-7.4,10.7-7.4,17.6v108.6
			c0,6.9,2.5,12.8,7.4,17.8C320.3,529.7,326.2,532.2,333.1,532.2 M333.1,335.4c-8.6,0-16.9,1.7-24.7,5c-7.8,3.3-14.6,7.9-20.2,13.7
			c-5.6,5.8-10.1,12.5-13.4,20c-3.3,7.6-5,15.9-5,24.5V507c0,8.6,1.7,16.9,5,24.7c3.3,7.7,7.8,14.5,13.4,20.1
			c5.6,5.6,12.4,10.2,20.1,13.5c7.8,3.3,16.1,5,24.6,5c5,0,9.8-0.6,14.3-1.8c1.6-0.4,3.3-0.9,4.9-1.5l0.1,1.4h5.7h32h6.1v-6.1V507
			V398.7v-54.9v-6.1h-6.1h-32h-6.1v0.7c-1.4-0.5-2.8-0.9-4.3-1.2C343,336,338.1,335.4,333.1,335.4L333.1,335.4z M333.1,526
			c-5.3,0-9.7-1.8-13.5-5.6c-3.8-3.8-5.6-8.2-5.6-13.5V398.3c0-5.2,1.8-9.5,5.6-13.2c3.8-3.7,8.2-5.5,13.5-5.5
			c5.3,0,9.6,1.8,13.2,5.4c3.6,3.6,5.4,8,5.4,13.2v108.6c0,5.3-1.8,9.7-5.5,13.5C342.7,524.2,338.4,526,333.1,526L333.1,526z"/>
		<path class="st0" d="M531.4,246.9v315.4h-57.2c-7.8,0-15.2-1.5-22.1-4.5c-6.9-3-12.9-7.1-18-12.2c-5.1-5.1-9.2-11.2-12.2-18.2
			c-3-7.1-4.5-14.5-4.5-22.3V401c0-7.8,1.5-15.2,4.5-22.1c3-6.9,7.1-13,12.2-18.3c5.1-5.3,11.1-9.4,18-12.4c6.9-3,14.3-4.5,22.1-4.5
			h17.6h7.7v-96.9H531.4 M474.2,530.4h25.2V375.8h-7.7h-17.6c-6.9,0-12.8,2.5-17.6,7.4c-4.8,5-7.2,10.9-7.2,17.8v104.1
			c0,6.9,2.4,12.8,7.2,17.8C461.4,527.9,467.3,530.4,474.2,530.4 M537.5,240.8h-6.1h-32h-6.1v6.1v90.7h-1.5h-17.6
			c-8.6,0-16.9,1.7-24.5,5c-7.6,3.3-14.3,7.9-20,13.7c-5.6,5.8-10.1,12.5-13.4,20.1c-3.3,7.7-5,15.9-5,24.5v104.1
			c0,8.6,1.7,16.9,5,24.7c3.3,7.8,7.8,14.5,13.5,20.2c5.6,5.6,12.3,10.2,19.9,13.5c7.6,3.3,15.9,5,24.5,5h57.2h6.1v-6.1V246.9V240.8
			L537.5,240.8z M474.2,524.2c-5.2,0-9.5-1.8-13.2-5.6c-3.7-3.8-5.5-8.2-5.5-13.5V401c0-5.3,1.8-9.7,5.5-13.5
			c3.6-3.7,7.9-5.6,13.2-5.6h17.6h1.5v142.3H474.2L474.2,524.2z"/>
		<path class="st0" d="M672.4,343.8V424c0,3.3-0.3,7.6-0.9,12.8c-0.6,5.3-1.4,11.3-2.5,18c-1.1,6.8-2.3,13.9-3.8,21.4
			c-1.5,7.5-3.3,15-5.4,22.5c-6,23.1-12.5,39.9-19.6,50.2c-7.1,10.4-15.4,15.5-25,15.5c-9.6,0-18-5.2-25-15.5
			c-7.1-10.4-13.6-27.1-19.6-50.2c-1.8-7.5-3.5-15-5-22.5c-1.5-7.5-2.8-14.6-3.8-21.4c-1.1-6.8-1.9-12.8-2.5-18
			c-0.6-5.3-0.9-9.5-0.9-12.8v-80.2h32V424c0,3.9,0.7,11.4,2.3,22.5c1.5,11.1,3.9,23.3,7.2,36.5c3.3,12.9,6.3,22.8,9,29.7
			c2.7,6.9,4.8,12,6.3,15.3c1.8-3.3,4.1-8.4,6.8-15.3c2.7-6.9,5.6-16.8,8.6-29.7c3.3-13.2,5.8-25.4,7.4-36.5
			c1.6-11.1,2.5-18.6,2.5-22.5v-80.2H672.4 M678.6,337.7h-6.1h-32h-6.1v6.1V424c0,3.6-0.8,10.8-2.4,21.6c-1.6,10.9-4.1,23-7.3,35.9
			l0,0l0,0c-2.9,12.6-5.7,22.3-8.3,28.9c-0.3,0.7-0.5,1.4-0.8,2.1c-0.3-0.7-0.5-1.4-0.8-2.1c-2.6-6.7-5.6-16.4-8.8-29
			c-3.2-12.9-5.6-24.9-7.1-35.8c-1.8-13.4-2.2-19.2-2.2-21.7v-80.2v-6.1h-6.1h-32h-6.1v6.1V424c0,3.6,0.3,8.1,0.9,13.5
			c0.6,5.4,1.5,11.5,2.5,18.3c1.1,6.9,2.4,14.2,3.9,21.7c1.5,7.5,3.2,15.1,5,22.8l0,0.1l0,0.1c6.2,24,12.9,41.1,20.5,52.2
			c8.2,12.1,18.4,18.2,30.1,18.2c11.7,0,21.8-6.1,30.1-18.2c7.5-11,14.2-28.1,20.5-52.1c2.1-7.6,4-15.3,5.5-22.9
			c1.5-7.5,2.8-14.8,3.9-21.7c1.1-6.8,1.9-12.9,2.5-18.3c0.6-5.6,0.9-10,0.9-13.5v-80.2V337.7L678.6,337.7z"/>
		<path class="st0" d="M756.5,342c7.8,0,15.1,1.5,22,4.5c6.9,3,12.9,7.1,18.2,12.4c5.2,5.2,9.3,11.3,12.3,18.2
			c3,6.9,4.5,14.2,4.5,22v32.8l-82,45.8v29.7c0,6.9,2.4,12.8,7.3,17.8c4.9,4.9,10.8,7.4,17.7,7.4c7,0,12.9-2.5,17.7-7.4
			c4.9-5,7.3-10.9,7.3-17.8h32c0,7.8-1.5,15.2-4.5,22.3c-3,7.1-7.1,13.1-12.3,18.2c-5.2,5.1-11.3,9.2-18.2,12.2
			c-6.9,3-14.2,4.5-22,4.5c-7.8,0-15.2-1.5-22.2-4.5c-7-3-13.1-7-18.2-12.1s-9.1-11.2-12.1-18.2c-3-7-4.5-14.5-4.5-22.3V399.1
			c0-7.8,1.5-15.1,4.5-22c3-6.9,7-13,12.1-18.2c5.1-5.2,11.1-9.4,18.2-12.4C741.3,343.5,748.7,342,756.5,342 M731.5,440.7l50-27.9
			v-14c0-6.9-2.4-12.8-7.3-17.6c-4.9-4.8-10.8-7.2-17.7-7.2c-7,0-12.9,2.4-17.7,7.2c-4.9,4.8-7.3,10.7-7.3,17.6V440.7 M756.5,335.9
			c-8.6,0-16.9,1.7-24.6,5c-7.8,3.3-14.6,7.9-20.2,13.7c-5.6,5.8-10.1,12.5-13.3,20c-3.3,7.6-5,15.9-5,24.5v108.4
			c0,8.6,1.7,16.9,5,24.7c3.3,7.7,7.8,14.5,13.4,20.1c5.6,5.6,12.4,10.2,20.1,13.5c7.8,3.3,16.1,5,24.6,5c8.6,0,16.8-1.7,24.4-5
			c7.5-3.3,14.3-7.8,20-13.4c5.8-5.6,10.4-12.5,13.7-20.2c3.3-7.8,5-16.1,5-24.7v-6.1h-6.1h-32h-6.1v6.1c0,5.3-1.8,9.7-5.5,13.5
			c-3.7,3.8-8,5.6-13.3,5.6c-5.3,0-9.7-1.8-13.4-5.6c-3.7-3.8-5.5-8.2-5.5-13.5v-26.1l78.9-44.1l3.1-1.8v-3.6v-32.8
			c0-8.6-1.7-16.8-5-24.5c-3.3-7.6-7.9-14.3-13.6-20.1c-5.8-5.8-12.5-10.4-20.1-13.7C773.3,337.6,765,335.9,756.5,335.9L756.5,335.9
			z M737.6,430.2v-31.4c0-5.3,1.8-9.6,5.5-13.2c3.7-3.7,8.1-5.4,13.4-5.4c5.3,0,9.7,1.8,13.4,5.4c3.7,3.6,5.5,8,5.5,13.2v10.4
			L737.6,430.2L737.6,430.2z"/>
		<path class="st0" d="M898.2,343.8c7.8,0,15.2,1.5,22.1,4.5c6.9,3,12.9,7.1,18,12.4c5.1,5.3,9.2,11.3,12.2,18.3
			c3,6.9,4.5,14.3,4.5,22.1v161.3h-32V401c0-6.9-2.4-12.8-7.2-17.8c-4.8-5-10.7-7.4-17.6-7.4c-6.9,0-12.8,2.5-17.8,7.4
			c-5,5-7.4,10.9-7.4,17.8v103.6v57.7h-32v-57.7V401v-57.2h32v5.9C881.3,345.8,889.8,343.8,898.2,343.8 M898.2,337.7
			c-6.3,0-12.7,1-19.1,3v-3h-6.1h-32h-6.1v6.1V401v103.6v57.7v6.1h6.1h32h6.1v-6.1v-57.7V401c0-5.3,1.8-9.7,5.6-13.5
			c3.8-3.8,8.2-5.6,13.5-5.6c5.2,0,9.5,1.8,13.2,5.6c3.7,3.8,5.5,8.2,5.5,13.5v161.3v6.1h6.1h32h6.1v-6.1V401c0-8.6-1.7-16.9-5-24.5
			c-3.3-7.6-7.8-14.3-13.4-20.1c-5.7-5.8-12.4-10.4-20-13.7C915,339.4,906.8,337.7,898.2,337.7L898.2,337.7z"/>
		<path class="st0" d="M1014,286.6v57.2h33.3v32H1014v128.9c0,6.9,2.5,12.8,7.4,17.8c5,5,10.9,7.4,17.8,7.4h8.1v32h-8.1
			c-7.8,0-15.2-1.5-22.3-4.5c-7.1-3-13.1-7.1-18.2-12.2c-5.1-5.1-9.2-11.2-12.2-18.2c-3-7.1-4.5-14.5-4.5-22.3V286.6H1014
			 M1020.1,280.4h-6.1h-32h-6.1v6.1v218.1c0,8.6,1.7,16.9,5,24.7c3.3,7.8,7.8,14.5,13.5,20.2c5.6,5.6,12.4,10.2,20.2,13.5
			c7.8,3.3,16.1,5,24.7,5h8.1h6.1v-6.1v-32v-6.1h-6.1h-8.1c-5.3,0-9.7-1.8-13.5-5.6c-3.8-3.8-5.6-8.2-5.6-13.5V382h27.2h6.1v-6.1
			v-32v-6.1h-6.1h-27.2v-51.1V280.4L1020.1,280.4z"/>
		<path class="st0" d="M1143.3,343.8v32h-11.7c-6.9,0-12.8,2.5-17.8,7.4c-5,5-7.4,10.9-7.4,17.8v103.6v57.7h-32v-57.7V401v-57.2h32
			v5.9c8.4-3.9,16.8-5.9,25.2-5.9H1143.3 M1149.4,337.7h-6.1h-11.7c-6.3,0-12.7,1-19.1,3v-3h-6.1h-32h-6.1v6.1V401v103.6v57.7v6.1
			h6.1h32h6.1v-6.1v-57.7V401c0-5.3,1.8-9.7,5.6-13.5c3.8-3.8,8.2-5.6,13.5-5.6h11.7h6.1v-6.1v-32V337.7L1149.4,337.7z"/>
		<path class="st0" d="M1202.3,281.2v36.9h-32v-36.9H1202.3 M1202.3,343.8v218.5h-32V343.8H1202.3 M1208.5,275h-6.1h-32h-6.1v6.1
			v36.9v6.1h6.1h32h6.1v-6.1v-36.9V275L1208.5,275z M1208.5,337.7h-6.1h-32h-6.1v6.1v218.5v6.1h6.1h32h6.1v-6.1V343.8V337.7
			L1208.5,337.7z"/>
		<path class="st0" d="M1286.1,344.3c7.8,0,15.2,1.5,22.1,4.5c6.9,3,13,7.1,18.2,12.4c5.3,5.3,9.4,11.3,12.4,18.2
			c3,6.9,4.5,14.2,4.5,22v103.9c0,7.8-1.5,15.2-4.5,22.3c-3,7-7.1,13.1-12.4,18.2c-5.3,5.1-11.3,9.1-18.2,12.1
			c-6.9,3-14.3,4.5-22.1,4.5c-8.1,0-16.4-1.9-24.8-5.8v94.5h-32V505.3V401.4v-57.1h32v5.8C1269.7,346.2,1278,344.3,1286.1,344.3
			 M1286.1,530.4c6.9,0,12.8-2.4,17.8-7.2c5-4.8,7.4-10.7,7.4-17.6V401.1c0-6.9-2.5-12.8-7.4-17.6c-5-4.8-10.9-7.2-17.8-7.2
			c-6.9,0-12.8,2.4-17.6,7.2c-4.8,4.8-7.2,10.7-7.2,17.6v104.4c0,6.9,2.4,12.8,7.2,17.6C1273.4,528,1279.2,530.4,1286.1,530.4
			 M1286.1,338.1c-6.1,0-12.4,1-18.6,3v-3h-6.1h-32h-6.1v6.1v57.1v103.9v145.8v6.1h6.1h32h6.1v-6.1v-85.6c6.3,2,12.5,3,18.6,3
			c8.6,0,16.9-1.7,24.5-5c7.6-3.3,14.3-7.8,20.1-13.4c5.8-5.7,10.5-12.5,13.8-20.2c3.3-7.8,5-16.1,5-24.7V401.4
			c0-8.6-1.7-16.8-5-24.5c-3.3-7.6-7.9-14.3-13.7-20.1c-5.8-5.8-12.6-10.4-20.1-13.7C1303,339.8,1294.7,338.1,1286.1,338.1
			L1286.1,338.1z M1286.1,524.2c-5.3,0-9.6-1.8-13.2-5.4c-3.6-3.7-5.4-8-5.4-13.3V401.1c0-5.3,1.8-9.6,5.4-13.3
			c3.6-3.7,8-5.4,13.2-5.4c5.3,0,9.7,1.8,13.5,5.5c3.7,3.6,5.6,8,5.6,13.2v104.4c0,5.3-1.8,9.6-5.6,13.2
			C1295.8,522.4,1291.4,524.2,1286.1,524.2L1286.1,524.2z"/>
		<path class="st0" d="M1423.1,341.6c7.8,0,15.2,1.5,22.1,4.5c6.9,3,13,7.1,18.2,12.4c5.3,5.3,9.4,11.3,12.4,18.2
			c3,6.9,4.5,14.3,4.5,22.1h-32c0-7-2.5-13-7.5-17.9c-5-4.9-11-7.3-18-7.3c-7,0-12.9,2.5-17.7,7.3c-4.9,4.9-7.3,10.9-7.3,17.9v9.9
			c0,5.1,1.4,9.7,4.1,13.9c2.7,4.2,6.5,7.2,11.4,9l31.8,13c10.5,4.5,19,11.5,25.5,21.1c6.5,9.6,9.7,20.1,9.7,31.5v9.9
			c0,7.8-1.5,15.2-4.5,22.2c-3,7-7.1,13.1-12.4,18.2c-5.3,5.1-11.3,9.1-18.2,12.1c-6.9,3-14.3,4.5-22.1,4.5
			c-7.8,0-15.2-1.5-22.3-4.5c-7.1-3-13.1-7.1-18.2-12.2c-5.1-5.1-9.2-11.2-12.2-18.2c-3-7.1-4.5-14.5-4.5-22.3h32
			c0,6.9,2.4,12.8,7.3,17.8c4.8,5,10.8,7.4,17.7,7.4c7,0,13-2.5,18-7.4c5-4.9,7.5-10.9,7.5-17.8v-9.9c0-5.1-1.4-9.7-4.3-13.7
			c-2.9-4-6.8-7.1-11.6-9.2l-31.4-13c-10.7-4.2-19.2-11.1-25.6-20.7c-6.4-9.6-9.6-20.2-9.6-31.9v-9.9c0-7.8,1.5-15.1,4.5-22
			c3-6.9,7.1-13,12.2-18.2c5.1-5.2,11.2-9.4,18.2-12.4C1407.9,343.1,1415.3,341.6,1423.1,341.6 M1423.1,335.4
			c-8.6,0-16.9,1.7-24.7,5c-7.8,3.3-14.6,7.9-20.2,13.7c-5.6,5.8-10.1,12.5-13.4,20c-3.3,7.6-5,15.9-5,24.5v9.9
			c0,12.9,3.6,24.8,10.6,35.3c7,10.6,16.6,18.3,28.4,23l31.3,13c3.8,1.7,6.8,4,9,7.1c2.1,3,3.2,6.3,3.2,10.1v9.9
			c0,5.2-1.9,9.6-5.7,13.4c-3.8,3.8-8.3,5.6-13.6,5.6c-5.3,0-9.7-1.8-13.3-5.6c-3.7-3.8-5.5-8.2-5.5-13.5v-6.1h-6.1h-32h-6.1v6.1
			c0,8.6,1.7,16.9,5,24.7c3.3,7.8,7.8,14.5,13.5,20.2c5.6,5.6,12.4,10.2,20.2,13.5c7.8,3.3,16.1,5,24.7,5c8.6,0,16.9-1.7,24.5-5
			c7.6-3.3,14.3-7.8,20.1-13.4c5.8-5.6,10.5-12.4,13.8-20.2c3.3-7.8,5-16.1,5-24.7v-9.9c0-12.6-3.6-24.3-10.7-34.9
			c-7.1-10.5-16.6-18.4-28.1-23.3l0,0l0,0l-31.8-13l-0.1,0l-0.1,0c-3.6-1.3-6.4-3.5-8.4-6.6c-2.1-3.2-3.1-6.7-3.1-10.6v-9.9
			c0-5.4,1.8-9.8,5.5-13.6c3.7-3.7,8.1-5.5,13.4-5.5c5.3,0,9.8,1.8,13.7,5.6c3.8,3.7,5.7,8.1,5.7,13.5v6.1h6.1h32h6.1v-6.1
			c0-8.6-1.7-16.9-5-24.5c-3.3-7.6-7.9-14.4-13.7-20.1c-5.8-5.8-12.6-10.4-20.1-13.7C1440,337.1,1431.7,335.4,1423.1,335.4
			L1423.1,335.4z"/>
	</g>
	<g>
		<path class="st10" d="M357.9,343.8h32v54.9V507v55.3h-32l-0.3-4.1c-3.9,1.8-7.9,3.2-11.9,4.3c-4,1-8.3,1.6-12.8,1.6
			c-7.8,0-15.2-1.5-22.2-4.5c-7-3-13.1-7-18.2-12.1c-5.1-5.1-9.1-11.2-12.1-18.2c-3-7-4.5-14.5-4.5-22.3V398.7
			c0-7.8,1.5-15.1,4.5-22c3-6.9,7.1-13,12.2-18.2c5.1-5.2,11.2-9.4,18.2-12.4c7.1-3,14.5-4.5,22.3-4.5c4.5,0,8.8,0.5,12.8,1.6
			c4.1,1,8,2.4,11.9,4.2V343.8z M333.1,532.2c6.9,0,12.8-2.5,17.6-7.4c4.8-5,7.2-10.9,7.2-17.8V398.3c0-6.9-2.4-12.8-7.2-17.6
			c-4.8-4.8-10.7-7.2-17.6-7.2c-6.9,0-12.8,2.4-17.8,7.2c-5,4.8-7.4,10.7-7.4,17.6v108.6c0,6.9,2.5,12.8,7.4,17.8
			C320.3,529.7,326.2,532.2,333.1,532.2z"/>
		<path class="st10" d="M499.4,246.9h32v315.4h-57.2c-7.8,0-15.2-1.5-22.1-4.5c-6.9-3-12.9-7.1-18-12.2c-5.1-5.1-9.2-11.2-12.2-18.2
			c-3-7.1-4.5-14.5-4.5-22.3V401c0-7.8,1.5-15.2,4.5-22.1c3-6.9,7.1-13,12.2-18.3c5.1-5.3,11.1-9.4,18-12.4c6.9-3,14.3-4.5,22.1-4.5
			h17.6h7.7V246.9z M499.4,375.8h-7.7h-17.6c-6.9,0-12.8,2.5-17.6,7.4c-4.8,5-7.2,10.9-7.2,17.8v104.1c0,6.9,2.4,12.8,7.2,17.8
			c4.8,5,10.7,7.4,17.6,7.4h25.2V375.8z"/>
		<path class="st10" d="M640.4,343.8h32V424c0,3.3-0.3,7.6-0.9,12.8c-0.6,5.3-1.4,11.3-2.5,18c-1.1,6.8-2.3,13.9-3.8,21.4
			c-1.5,7.5-3.3,15-5.4,22.5c-6,23.1-12.5,39.9-19.6,50.2c-7.1,10.4-15.4,15.5-25,15.5c-9.6,0-18-5.2-25-15.5
			c-7.1-10.4-13.6-27.1-19.6-50.2c-1.8-7.5-3.5-15-5-22.5c-1.5-7.5-2.8-14.6-3.8-21.4c-1.1-6.8-1.9-12.8-2.5-18
			c-0.6-5.3-0.9-9.5-0.9-12.8v-80.2h32V424c0,3.9,0.7,11.4,2.3,22.5c1.5,11.1,3.9,23.3,7.2,36.5c3.3,12.9,6.3,22.8,9,29.7
			c2.7,6.9,4.8,12,6.3,15.3c1.8-3.3,4.1-8.4,6.8-15.3c2.7-6.9,5.6-16.8,8.6-29.7c3.3-13.2,5.8-25.4,7.4-36.5
			c1.6-11.1,2.5-18.6,2.5-22.5V343.8z"/>
		<path class="st10" d="M813.5,507.4c0,7.8-1.5,15.2-4.5,22.3c-3,7.1-7.1,13.1-12.3,18.2c-5.2,5.1-11.3,9.2-18.2,12.2
			c-6.9,3-14.2,4.5-22,4.5c-7.8,0-15.2-1.5-22.2-4.5c-7-3-13.1-7-18.2-12.1s-9.1-11.2-12.1-18.2c-3-7-4.5-14.5-4.5-22.3V399.1
			c0-7.8,1.5-15.1,4.5-22c3-6.9,7-13,12.1-18.2c5.1-5.2,11.1-9.4,18.2-12.4c7-3,14.4-4.5,22.2-4.5c7.8,0,15.1,1.5,22,4.5
			c6.9,3,12.9,7.1,18.2,12.4c5.2,5.2,9.3,11.3,12.3,18.2c3,6.9,4.5,14.2,4.5,22v32.8l-82,45.8v29.7c0,6.9,2.4,12.8,7.3,17.8
			c4.9,4.9,10.8,7.4,17.7,7.4c7,0,12.9-2.5,17.7-7.4c4.9-5,7.3-10.9,7.3-17.8H813.5z M731.5,440.7l50-27.9v-14
			c0-6.9-2.4-12.8-7.3-17.6c-4.9-4.8-10.8-7.2-17.7-7.2c-7,0-12.9,2.4-17.7,7.2c-4.9,4.8-7.3,10.7-7.3,17.6V440.7z"/>
		<path class="st10" d="M898.2,343.8c7.8,0,15.2,1.5,22.1,4.5c6.9,3,12.9,7.1,18,12.4c5.1,5.3,9.2,11.3,12.2,18.3
			c3,6.9,4.5,14.3,4.5,22.1v161.3h-32V401c0-6.9-2.4-12.8-7.2-17.8c-4.8-5-10.7-7.4-17.6-7.4c-6.9,0-12.8,2.5-17.8,7.4
			c-5,5-7.4,10.9-7.4,17.8v103.6v57.7h-32v-57.7V401v-57.2h32v5.9C881.3,345.8,889.8,343.8,898.2,343.8z"/>
		<path class="st10" d="M1014,343.8h33.3v32H1014v128.9c0,6.9,2.5,12.8,7.4,17.8c5,5,10.9,7.4,17.8,7.4h8.1v32h-8.1
			c-7.8,0-15.2-1.5-22.3-4.5c-7.1-3-13.1-7.1-18.2-12.2c-5.1-5.1-9.2-11.2-12.2-18.2c-3-7.1-4.5-14.5-4.5-22.3V286.6h32V343.8z"/>
		<path class="st10" d="M1131.6,343.8h11.7v32h-11.7c-6.9,0-12.8,2.5-17.8,7.4c-5,5-7.4,10.9-7.4,17.8v103.6v57.7h-32v-57.7V401
			v-57.2h32v5.9C1114.7,345.8,1123.2,343.8,1131.6,343.8z"/>
		<path class="st10" d="M1202.3,281.2v36.9h-32v-36.9H1202.3z M1170.3,343.8h32v218.5h-32V343.8z"/>
		<path class="st10" d="M1286.1,344.3c7.8,0,15.2,1.5,22.1,4.5c6.9,3,13,7.1,18.2,12.4c5.3,5.3,9.4,11.3,12.4,18.2
			c3,6.9,4.5,14.2,4.5,22v103.9c0,7.8-1.5,15.2-4.5,22.3c-3,7-7.1,13.1-12.4,18.2c-5.3,5.1-11.3,9.1-18.2,12.1
			c-6.9,3-14.3,4.5-22.1,4.5c-8.1,0-16.4-1.9-24.8-5.8v94.5h-32V505.3V401.4v-57.1h32v5.8C1269.7,346.2,1278,344.3,1286.1,344.3z
			 M1311.4,401.1c0-6.9-2.5-12.8-7.4-17.6c-5-4.8-10.9-7.2-17.8-7.2c-6.9,0-12.8,2.4-17.6,7.2c-4.8,4.8-7.2,10.7-7.2,17.6v104.4
			c0,6.9,2.4,12.8,7.2,17.6c4.8,4.8,10.7,7.2,17.6,7.2c6.9,0,12.8-2.4,17.8-7.2c5-4.8,7.4-10.7,7.4-17.6V401.1z"/>
		<path class="st10" d="M1422.9,373.6c-7,0-12.9,2.5-17.7,7.3c-4.9,4.9-7.3,10.9-7.3,17.9v9.9c0,5.1,1.4,9.7,4.1,13.9
			c2.7,4.2,6.5,7.2,11.4,9l31.8,13c10.5,4.5,19,11.5,25.5,21.1c6.5,9.6,9.7,20.1,9.7,31.5v9.9c0,7.8-1.5,15.2-4.5,22.2
			c-3,7-7.1,13.1-12.4,18.2c-5.3,5.1-11.3,9.1-18.2,12.1c-6.9,3-14.3,4.5-22.1,4.5c-7.8,0-15.2-1.5-22.3-4.5
			c-7.1-3-13.1-7.1-18.2-12.2c-5.1-5.1-9.2-11.2-12.2-18.2c-3-7.1-4.5-14.5-4.5-22.3h32c0,6.9,2.4,12.8,7.3,17.8
			c4.8,5,10.8,7.4,17.7,7.4c7,0,13-2.5,18-7.4c5-4.9,7.5-10.9,7.5-17.8v-9.9c0-5.1-1.4-9.7-4.3-13.7c-2.9-4-6.8-7.1-11.6-9.2
			l-31.4-13c-10.7-4.2-19.2-11.1-25.6-20.7c-6.4-9.6-9.6-20.2-9.6-31.9v-9.9c0-7.8,1.5-15.1,4.5-22c3-6.9,7.1-13,12.2-18.2
			c5.1-5.2,11.2-9.4,18.2-12.4c7.1-3,14.5-4.5,22.3-4.5c7.8,0,15.2,1.5,22.1,4.5c6.9,3,13,7.1,18.2,12.4c5.3,5.3,9.4,11.3,12.4,18.2
			c3,6.9,4.5,14.3,4.5,22.1h-32c0-7-2.5-13-7.5-17.9C1435.8,376,1429.8,373.6,1422.9,373.6z"/>
	</g>
</g>
</svg>
